<svg width="77px" height="59px" viewBox="0 0 77 59" xmlns="http://www.w3.org/2000/svg">

    <g id="Page-1" stroke="none" stroke-width="1" fill="none" fill-rule="evenodd">
        <g id="Weather-icons" transform="translate(-373.000000, -155.000000)">
            <g id="icon_few_clouds_day" transform="translate(411.338886, 184.315619) scale(-1, 1) translate(-411.338886, -184.315619) translate(372.838886, 155.315619)">
                <g id="sun" transform="translate(30.797129, 0.000000)" fill="#FEE6AC">
                    <ellipse id="Oval" cx="22.9767416" cy="22.9499425" rx="22.9255135" ry="22.9499425"></ellipse>
                </g>
                <path d="M40.3145802,57.7770373 C45.5592956,57.7770373 49.8314679,53.3798001 49.8314679,48.1540345 C49.8314679,43.7567973 46.9385475,40.0819669 42.8699767,38.8844463 C42.7622458,34.9657305 39.5110461,31.8375731 35.5067184,31.8375731 C34.3429283,31.8375731 33.2463464,32.1194285 32.267379,32.5925952 C30.5357779,28.5448783 26.4711605,25.7083122 21.7324837,25.7083122 C16.5653543,25.7083122 12.2012648,29.0900909 10.7884088,33.727319 C4.68085786,34.4541069 0,39.5041388 0,45.716642 C0,52.2256045 5.07274133,57.7770373 11.7673762,57.7770373 L40.3145802,57.7770373 Z" id="cloud" fill="#FFFFFF"></path>
            </g>
        </g>
    </g>
</svg>