<svg width="69px" height="53px" viewBox="0 0 69 53" xmlns="http://www.w3.org/2000/svg">
    <g id="Page-1" stroke="none" stroke-width="1" fill="none" fill-rule="evenodd">
        <g id="Weather-icons" transform="translate(-372.000000, -284.000000)" fill="#FFFFFF">
            <g id="icon_few_clouds_night" transform="translate(372.838886, 284.357275)">
                <path d="M30.9119186,49.1806515 C39.630411,45.0345342 45.6581115,36.1386075 45.6581115,25.8333358 C45.6581115,15.528064 39.630411,6.6321373 30.9119186,2.48602 C34.2639325,0.891955132 38.0136951,0 41.9715633,0 C56.2237338,0 67.7774008,11.5659784 67.7774008,25.8333358 C67.7774008,40.1006931 56.2237338,51.6666715 41.9715633,51.6666715 C38.0136951,51.6666715 34.2639325,50.7747164 30.9119186,49.1806515 Z" id="moon" opacity="0.5"></path>
                <path d="M11.7673762,44.5399907 L40.3145802,44.5399907 C45.5592956,44.5399907 49.8314679,40.1427535 49.8314679,34.9169878 C49.8314679,30.5197506 46.9385475,26.8449202 42.8699767,25.6473996 C42.7622458,21.7286838 39.5110461,18.6005264 35.5067184,18.6005264 C34.3429283,18.6005264 33.2463464,18.8823819 32.267379,19.3555485 C30.5357779,15.3078316 26.4711605,12.4712655 21.7324837,12.4712655 C16.5653543,12.4712655 12.2012648,15.8530442 10.7884088,20.4902723 C4.68085786,21.2170602 0,26.2670922 0,32.4795953 C0,38.9885578 5.07274133,44.5399907 11.7673762,44.5399907" id="cloud"></path>
            </g>
        </g>
    </g>
</svg>